<svg xmlns="http://www.w3.org/2000/svg" xmlns:xlink="http://www.w3.org/1999/xlink" width="500" zoomAndPan="magnify" viewBox="0 0 375 374.999991" height="500" preserveAspectRatio="xMidYMid meet" version="1.0"><defs><g/></defs><g fill="#fffafa" fill-opacity="1"><g transform="translate(132.248405, 267.256886)"><g><path d="M 7.828125 -3.9375 L 9.796875 -0.328125 C 9.835938 -0.234375 9.835938 -0.15625 9.796875 -0.09375 C 9.765625 -0.03125 9.695312 0 9.59375 0 L 7.046875 0 C 6.898438 0 6.789062 -0.0703125 6.71875 -0.21875 L 5.03125 -3.578125 L 3.84375 -3.578125 L 3.84375 -0.28125 C 3.84375 -0.09375 3.75 0 3.5625 0 L 1.3125 0 C 1.132812 0 1.046875 -0.09375 1.046875 -0.28125 L 1.046875 -10.21875 C 1.046875 -10.40625 1.132812 -10.5 1.3125 -10.5 L 5.6875 -10.5 C 6.269531 -10.5 6.773438 -10.4375 7.203125 -10.3125 C 7.640625 -10.195312 8 -10.035156 8.28125 -9.828125 C 8.570312 -9.617188 8.800781 -9.367188 8.96875 -9.078125 C 9.144531 -8.796875 9.269531 -8.488281 9.34375 -8.15625 C 9.414062 -7.820312 9.453125 -7.476562 9.453125 -7.125 C 9.453125 -6.363281 9.304688 -5.707031 9.015625 -5.15625 C 8.734375 -4.613281 8.335938 -4.207031 7.828125 -3.9375 Z M 5.203125 -8.125 L 3.84375 -8.125 L 3.84375 -5.96875 L 5.203125 -5.96875 C 5.273438 -5.96875 5.367188 -5.96875 5.484375 -5.96875 C 5.609375 -5.976562 5.738281 -6 5.875 -6.03125 C 6.007812 -6.0625 6.132812 -6.117188 6.25 -6.203125 C 6.363281 -6.285156 6.457031 -6.394531 6.53125 -6.53125 C 6.613281 -6.675781 6.65625 -6.863281 6.65625 -7.09375 C 6.65625 -7.351562 6.601562 -7.550781 6.5 -7.6875 C 6.40625 -7.832031 6.28125 -7.9375 6.125 -8 C 5.976562 -8.0625 5.820312 -8.097656 5.65625 -8.109375 C 5.488281 -8.117188 5.335938 -8.125 5.203125 -8.125 Z M 5.203125 -8.125 "/></g></g></g><g fill="#fffafa" fill-opacity="1"><g transform="translate(153.833491, 267.256886)"><g><path d="M 5.6875 0.28125 C 5.175781 0.28125 4.6875 0.234375 4.21875 0.140625 C 3.757812 0.046875 3.328125 -0.09375 2.921875 -0.28125 C 2.523438 -0.476562 2.175781 -0.726562 1.875 -1.03125 C 1.582031 -1.332031 1.351562 -1.691406 1.1875 -2.109375 C 1.019531 -2.523438 0.9375 -3.003906 0.9375 -3.546875 L 0.9375 -10.21875 C 0.9375 -10.40625 1.03125 -10.5 1.21875 -10.5 L 3.53125 -10.5 C 3.71875 -10.5 3.8125 -10.40625 3.8125 -10.21875 L 3.8125 -4.28125 C 3.8125 -3.5625 3.96875 -3.039062 4.28125 -2.71875 C 4.601562 -2.40625 5.070312 -2.25 5.6875 -2.25 C 6.300781 -2.25 6.765625 -2.40625 7.078125 -2.71875 C 7.398438 -3.039062 7.5625 -3.5625 7.5625 -4.28125 L 7.5625 -10.21875 C 7.5625 -10.40625 7.65625 -10.5 7.84375 -10.5 L 10.15625 -10.5 C 10.34375 -10.5 10.4375 -10.40625 10.4375 -10.21875 L 10.4375 -3.546875 C 10.4375 -2.859375 10.3125 -2.273438 10.0625 -1.796875 C 9.8125 -1.316406 9.46875 -0.921875 9.03125 -0.609375 C 8.59375 -0.304688 8.082031 -0.0820312 7.5 0.0625 C 6.925781 0.207031 6.320312 0.28125 5.6875 0.28125 Z M 5.6875 0.28125 "/></g></g></g><g fill="#fffafa" fill-opacity="1"><g transform="translate(176.395571, 267.256886)"><g><path d="M 5.46875 0 L 1.3125 0 C 1.132812 0 1.046875 -0.09375 1.046875 -0.28125 L 1.046875 -10.21875 C 1.046875 -10.40625 1.132812 -10.5 1.3125 -10.5 L 5.40625 -10.5 C 6.070312 -10.5 6.625 -10.425781 7.0625 -10.28125 C 7.507812 -10.144531 7.863281 -9.953125 8.125 -9.703125 C 8.394531 -9.460938 8.585938 -9.179688 8.703125 -8.859375 C 8.828125 -8.535156 8.890625 -8.191406 8.890625 -7.828125 C 8.890625 -7.242188 8.753906 -6.75 8.484375 -6.34375 C 8.210938 -5.945312 7.859375 -5.632812 7.421875 -5.40625 C 7.878906 -5.257812 8.25 -5.0625 8.53125 -4.8125 C 8.8125 -4.570312 9.015625 -4.289062 9.140625 -3.96875 C 9.265625 -3.65625 9.328125 -3.316406 9.328125 -2.953125 C 9.328125 -2.679688 9.289062 -2.40625 9.21875 -2.125 C 9.144531 -1.84375 9.023438 -1.570312 8.859375 -1.3125 C 8.691406 -1.0625 8.460938 -0.835938 8.171875 -0.640625 C 7.878906 -0.441406 7.507812 -0.285156 7.0625 -0.171875 C 6.625 -0.0546875 6.09375 0 5.46875 0 Z M 3.828125 -8.125 L 3.828125 -6.421875 L 5.359375 -6.421875 C 5.628906 -6.421875 5.84375 -6.457031 6 -6.53125 C 6.15625 -6.613281 6.265625 -6.71875 6.328125 -6.84375 C 6.390625 -6.976562 6.421875 -7.125 6.421875 -7.28125 C 6.421875 -7.53125 6.34375 -7.734375 6.1875 -7.890625 C 6.039062 -8.046875 5.765625 -8.125 5.359375 -8.125 Z M 3.828125 -4.328125 L 3.828125 -2.375 L 5.421875 -2.375 C 5.691406 -2.375 5.90625 -2.414062 6.0625 -2.5 C 6.226562 -2.59375 6.34375 -2.710938 6.40625 -2.859375 C 6.476562 -3.003906 6.515625 -3.164062 6.515625 -3.34375 C 6.515625 -3.53125 6.476562 -3.695312 6.40625 -3.84375 C 6.34375 -3.988281 6.226562 -4.101562 6.0625 -4.1875 C 5.90625 -4.28125 5.691406 -4.328125 5.421875 -4.328125 Z M 3.828125 -4.328125 "/></g></g></g><g fill="#fffafa" fill-opacity="1"><g transform="translate(197.570727, 267.256886)"><g><path d="M 3.5625 0 L 1.3125 0 C 1.132812 0 1.046875 -0.09375 1.046875 -0.28125 L 1.046875 -10.21875 C 1.046875 -10.40625 1.132812 -10.5 1.3125 -10.5 L 3.5625 -10.5 C 3.738281 -10.5 3.828125 -10.40625 3.828125 -10.21875 L 3.828125 -0.28125 C 3.828125 -0.09375 3.738281 0 3.5625 0 Z M 3.5625 0 "/></g></g></g><g fill="#fffafa" fill-opacity="1"><g transform="translate(213.642293, 267.256886)"><g><path d="M 7.859375 0 L 1.3125 0 C 1.132812 0 1.046875 -0.09375 1.046875 -0.28125 L 1.046875 -10.21875 C 1.046875 -10.40625 1.132812 -10.5 1.3125 -10.5 L 7.859375 -10.5 C 8.046875 -10.5 8.140625 -10.40625 8.140625 -10.21875 L 8.140625 -8.40625 C 8.140625 -8.21875 8.046875 -8.125 7.859375 -8.125 L 3.828125 -8.125 L 3.828125 -5.859375 L 7.3125 -5.859375 C 7.5 -5.859375 7.59375 -5.765625 7.59375 -5.578125 L 7.59375 -3.890625 C 7.59375 -3.703125 7.5 -3.609375 7.3125 -3.609375 L 3.828125 -3.609375 L 3.828125 -2.375 L 7.859375 -2.375 C 8.046875 -2.375 8.140625 -2.28125 8.140625 -2.09375 L 8.140625 -0.28125 C 8.140625 -0.09375 8.046875 0 7.859375 0 Z M 7.859375 0 "/></g></g></g><g fill="#fffafa" fill-opacity="1"><g transform="translate(233.77214, 267.256886)"><g><path d="M 4.28125 0.28125 C 3.757812 0.28125 3.222656 0.238281 2.671875 0.15625 C 2.117188 0.0703125 1.519531 -0.0546875 0.875 -0.234375 C 0.695312 -0.296875 0.632812 -0.414062 0.6875 -0.59375 L 1.28125 -2.421875 C 1.34375 -2.597656 1.460938 -2.65625 1.640625 -2.59375 C 1.941406 -2.5 2.25 -2.410156 2.5625 -2.328125 C 2.875 -2.253906 3.175781 -2.191406 3.46875 -2.140625 C 3.769531 -2.097656 4.046875 -2.078125 4.296875 -2.078125 C 4.660156 -2.078125 4.957031 -2.132812 5.1875 -2.25 C 5.425781 -2.363281 5.546875 -2.550781 5.546875 -2.8125 C 5.546875 -2.988281 5.46875 -3.144531 5.3125 -3.28125 C 5.164062 -3.425781 4.96875 -3.5625 4.71875 -3.6875 C 4.476562 -3.820312 4.207031 -3.953125 3.90625 -4.078125 C 3.601562 -4.210938 3.300781 -4.363281 3 -4.53125 C 2.6875 -4.6875 2.394531 -4.859375 2.125 -5.046875 C 1.851562 -5.234375 1.613281 -5.445312 1.40625 -5.6875 C 1.195312 -5.9375 1.03125 -6.21875 0.90625 -6.53125 C 0.78125 -6.84375 0.71875 -7.203125 0.71875 -7.609375 C 0.71875 -8.078125 0.785156 -8.484375 0.921875 -8.828125 C 1.066406 -9.179688 1.265625 -9.476562 1.515625 -9.71875 C 1.765625 -9.96875 2.050781 -10.171875 2.375 -10.328125 C 2.695312 -10.484375 3.046875 -10.597656 3.421875 -10.671875 C 3.804688 -10.742188 4.191406 -10.78125 4.578125 -10.78125 C 4.847656 -10.78125 5.144531 -10.757812 5.46875 -10.71875 C 5.800781 -10.6875 6.132812 -10.632812 6.46875 -10.5625 C 6.8125 -10.488281 7.144531 -10.398438 7.46875 -10.296875 C 7.632812 -10.242188 7.691406 -10.128906 7.640625 -9.953125 L 7.140625 -8.234375 C 7.109375 -8.148438 7.0625 -8.085938 7 -8.046875 C 6.945312 -8.015625 6.875 -8.015625 6.78125 -8.046875 C 6.445312 -8.171875 6.085938 -8.265625 5.703125 -8.328125 C 5.328125 -8.398438 4.984375 -8.4375 4.671875 -8.4375 C 4.359375 -8.4375 4.09375 -8.390625 3.875 -8.296875 C 3.664062 -8.210938 3.5625 -8.050781 3.5625 -7.8125 C 3.5625 -7.65625 3.617188 -7.515625 3.734375 -7.390625 C 3.847656 -7.265625 4.003906 -7.144531 4.203125 -7.03125 C 4.410156 -6.925781 4.648438 -6.8125 4.921875 -6.6875 C 5.191406 -6.570312 5.484375 -6.441406 5.796875 -6.296875 C 6.109375 -6.160156 6.414062 -6 6.71875 -5.8125 C 7.03125 -5.625 7.3125 -5.398438 7.5625 -5.140625 C 7.8125 -4.878906 8.015625 -4.566406 8.171875 -4.203125 C 8.328125 -3.847656 8.40625 -3.425781 8.40625 -2.9375 C 8.40625 -2.445312 8.328125 -2.019531 8.171875 -1.65625 C 8.015625 -1.300781 7.796875 -1 7.515625 -0.75 C 7.242188 -0.5 6.929688 -0.296875 6.578125 -0.140625 C 6.234375 0.00390625 5.863281 0.109375 5.46875 0.171875 C 5.070312 0.242188 4.675781 0.28125 4.28125 0.28125 Z M 4.28125 0.28125 "/></g></g></g><g fill="#fffafa" fill-opacity="1"><g transform="translate(131.710001, 287.194318)"><g><path d="M 1.765625 0 L 1.765625 -12.109375 L 5.953125 -12.109375 C 7.191406 -12.109375 8.273438 -11.847656 9.203125 -11.328125 C 10.140625 -10.816406 10.863281 -10.109375 11.375 -9.203125 C 11.894531 -8.304688 12.15625 -7.253906 12.15625 -6.046875 C 12.15625 -4.859375 11.894531 -3.8125 11.375 -2.90625 C 10.863281 -2 10.140625 -1.285156 9.203125 -0.765625 C 8.273438 -0.253906 7.191406 0 5.953125 0 Z M 3.28125 -1.453125 L 5.953125 -1.453125 C 6.867188 -1.453125 7.675781 -1.644531 8.375 -2.03125 C 9.070312 -2.414062 9.617188 -2.953125 10.015625 -3.640625 C 10.410156 -4.335938 10.609375 -5.140625 10.609375 -6.046875 C 10.609375 -6.972656 10.40625 -7.78125 10 -8.46875 C 9.601562 -9.15625 9.050781 -9.691406 8.34375 -10.078125 C 7.644531 -10.460938 6.820312 -10.65625 5.875 -10.65625 L 3.28125 -10.65625 Z M 3.28125 -1.453125 "/></g></g></g><g fill="#fffafa" fill-opacity="1"><g transform="translate(151.784067, 287.194318)"><g><path d="M 1.765625 0 L 1.765625 -12.109375 L 3.28125 -12.109375 L 3.28125 0 Z M 1.765625 0 "/></g></g></g><g fill="#fffafa" fill-opacity="1"><g transform="translate(163.751368, 287.194318)"><g><path d="M 7.15625 0.21875 C 6.269531 0.21875 5.453125 0.0664062 4.703125 -0.234375 C 3.953125 -0.546875 3.300781 -0.984375 2.75 -1.546875 C 2.195312 -2.109375 1.765625 -2.769531 1.453125 -3.53125 C 1.148438 -4.300781 1 -5.140625 1 -6.046875 C 1 -6.960938 1.148438 -7.800781 1.453125 -8.5625 C 1.753906 -9.320312 2.179688 -9.984375 2.734375 -10.546875 C 3.285156 -11.117188 3.929688 -11.554688 4.671875 -11.859375 C 5.421875 -12.171875 6.238281 -12.328125 7.125 -12.328125 C 8.050781 -12.328125 8.90625 -12.160156 9.6875 -11.828125 C 10.46875 -11.492188 11.144531 -11.023438 11.71875 -10.421875 C 12.289062 -9.828125 12.703125 -9.132812 12.953125 -8.34375 L 11.296875 -8.34375 C 10.910156 -9.125 10.359375 -9.726562 9.640625 -10.15625 C 8.929688 -10.59375 8.109375 -10.8125 7.171875 -10.8125 C 6.273438 -10.8125 5.476562 -10.609375 4.78125 -10.203125 C 4.082031 -9.796875 3.535156 -9.234375 3.140625 -8.515625 C 2.753906 -7.804688 2.5625 -6.984375 2.5625 -6.046875 C 2.5625 -5.117188 2.757812 -4.296875 3.15625 -3.578125 C 3.550781 -2.867188 4.097656 -2.3125 4.796875 -1.90625 C 5.492188 -1.5 6.296875 -1.296875 7.203125 -1.296875 C 8.015625 -1.296875 8.738281 -1.457031 9.375 -1.78125 C 10.007812 -2.101562 10.523438 -2.550781 10.921875 -3.125 C 11.316406 -3.695312 11.566406 -4.363281 11.671875 -5.125 L 6.75 -5.125 L 6.75 -6.578125 L 13.3125 -6.578125 C 13.34375 -5.242188 13.097656 -4.066406 12.578125 -3.046875 C 12.066406 -2.023438 11.347656 -1.222656 10.421875 -0.640625 C 9.492188 -0.0664062 8.40625 0.21875 7.15625 0.21875 Z M 7.15625 0.21875 "/></g></g></g><g fill="#fffafa" fill-opacity="1"><g transform="translate(184.931685, 287.194318)"><g><path d="M 1.765625 0 L 1.765625 -12.109375 L 3.28125 -12.109375 L 3.28125 0 Z M 1.765625 0 "/></g></g></g><g fill="#fffafa" fill-opacity="1"><g transform="translate(196.898983, 287.194318)"><g><path d="M 4.6875 0 L 4.6875 -10.65625 L 0.59375 -10.65625 L 0.59375 -12.109375 L 10.296875 -12.109375 L 10.296875 -10.65625 L 6.203125 -10.65625 L 6.203125 0 Z M 4.6875 0 "/></g></g></g><g fill="#fffafa" fill-opacity="1"><g transform="translate(214.708684, 287.194318)"><g><path d="M 0.296875 0 L 5.28125 -12.109375 L 6.6875 -12.109375 L 11.671875 0 L 10.0625 0 L 8.921875 -2.75 L 3.03125 -2.75 L 1.921875 0 Z M 3.609375 -4.171875 L 8.359375 -4.171875 L 5.984375 -9.984375 Z M 3.609375 -4.171875 "/></g></g></g><g fill="#fffafa" fill-opacity="1"><g transform="translate(233.590072, 287.194318)"><g><path d="M 1.765625 0 L 1.765625 -12.109375 L 3.28125 -12.109375 L 3.28125 -1.453125 L 9.171875 -1.453125 L 9.171875 0 Z M 1.765625 0 "/></g></g></g><path stroke-linecap="round" transform="matrix(0.75, 0, 0, 0.75, 163.312494, 144.39355)" fill="none" stroke-linejoin="miter" d="M 4.000009 128.001317 L 120.000016 128.001317 C 124.416683 128.001317 128.000017 124.417984 128.000017 120.001317 L 128.000017 4.001309 " stroke="#fffafa" stroke-width="8" stroke-opacity="1" stroke-miterlimit="4"/><path stroke-linecap="round" transform="matrix(0.75, 0, 0, 0.75, 112.499997, 93.393553)" fill="none" stroke-linejoin="miter" d="M 4.000004 128.001313 L 4.000004 12.001305 C 4.000004 7.57943 7.583338 4.001305 12.000005 4.001305 L 128.000012 4.001305 " stroke="#fffafa" stroke-width="8" stroke-opacity="1" stroke-miterlimit="4"/><path stroke-linecap="round" transform="matrix(0.530054, -0.530606, 0.530606, 0.530054, 113.376179, 238.251414)" fill="none" stroke-linejoin="miter" d="M 3.99771 3.999212 L 267.387668 3.996524 " stroke="#ff4500" stroke-width="8" stroke-opacity="1" stroke-miterlimit="4"/></svg>